%TF.GenerationSoftware,KiCad,Pcbnew,(6.0.9)*%
%TF.CreationDate,2023-06-19T17:18:25-04:00*%
%TF.ProjectId,ckc-mx,636b632d-6d78-42e6-9b69-6361645f7063,rev?*%
%TF.SameCoordinates,Original*%
%TF.FileFunction,Copper,L2,Bot*%
%TF.FilePolarity,Positive*%
%FSLAX46Y46*%
G04 Gerber Fmt 4.6, Leading zero omitted, Abs format (unit mm)*
G04 Created by KiCad (PCBNEW (6.0.9)) date 2023-06-19 17:18:25*
%MOMM*%
%LPD*%
G01*
G04 APERTURE LIST*
G04 Aperture macros list*
%AMRoundRect*
0 Rectangle with rounded corners*
0 $1 Rounding radius*
0 $2 $3 $4 $5 $6 $7 $8 $9 X,Y pos of 4 corners*
0 Add a 4 corners polygon primitive as box body*
4,1,4,$2,$3,$4,$5,$6,$7,$8,$9,$2,$3,0*
0 Add four circle primitives for the rounded corners*
1,1,$1+$1,$2,$3*
1,1,$1+$1,$4,$5*
1,1,$1+$1,$6,$7*
1,1,$1+$1,$8,$9*
0 Add four rect primitives between the rounded corners*
20,1,$1+$1,$2,$3,$4,$5,0*
20,1,$1+$1,$4,$5,$6,$7,0*
20,1,$1+$1,$6,$7,$8,$9,0*
20,1,$1+$1,$8,$9,$2,$3,0*%
G04 Aperture macros list end*
%TA.AperFunction,ComponentPad*%
%ADD10C,2.540000*%
%TD*%
%TA.AperFunction,ComponentPad*%
%ADD11RoundRect,0.250000X-0.350000X-0.625000X0.350000X-0.625000X0.350000X0.625000X-0.350000X0.625000X0*%
%TD*%
%TA.AperFunction,ComponentPad*%
%ADD12O,1.200000X1.750000*%
%TD*%
%TA.AperFunction,SMDPad,CuDef*%
%ADD13RoundRect,0.250000X-0.350000X-0.450000X0.350000X-0.450000X0.350000X0.450000X-0.350000X0.450000X0*%
%TD*%
%TA.AperFunction,SMDPad,CuDef*%
%ADD14RoundRect,0.250000X0.350000X0.450000X-0.350000X0.450000X-0.350000X-0.450000X0.350000X-0.450000X0*%
%TD*%
%TA.AperFunction,ComponentPad*%
%ADD15R,1.800000X1.800000*%
%TD*%
%TA.AperFunction,ComponentPad*%
%ADD16C,1.800000*%
%TD*%
%TA.AperFunction,ViaPad*%
%ADD17C,0.800000*%
%TD*%
%TA.AperFunction,Conductor*%
%ADD18C,0.250000*%
%TD*%
G04 APERTURE END LIST*
D10*
%TO.P,SW1,1,1*%
%TO.N,Net-(SW1-Pad1)*%
X145891250Y-60801250D03*
%TO.P,SW1,2,2*%
%TO.N,Net-(J1-Pad2)*%
X152241250Y-63341250D03*
%TD*%
D11*
%TO.P,J1,1,Pin_1*%
%TO.N,Net-(SW1-Pad1)*%
X144500000Y-70500000D03*
D12*
%TO.P,J1,2,Pin_2*%
%TO.N,Net-(J1-Pad2)*%
X146500000Y-70500000D03*
%TO.P,J1,3,Pin_3*%
%TO.N,Net-(J1-Pad3)*%
X148500000Y-70500000D03*
%TO.P,J1,4,Pin_4*%
%TO.N,Net-(J1-Pad4)*%
X150500000Y-70500000D03*
%TO.P,J1,5,Pin_5*%
%TO.N,Net-(J1-Pad5)*%
X152500000Y-70500000D03*
%TD*%
D13*
%TO.P,R2,1*%
%TO.N,Net-(J1-Pad4)*%
X149600000Y-74200000D03*
%TO.P,R2,2*%
%TO.N,a*%
X151600000Y-74200000D03*
%TD*%
D14*
%TO.P,R1,1*%
%TO.N,Net-(J1-Pad3)*%
X147000000Y-74200000D03*
%TO.P,R1,2*%
%TO.N,s*%
X145000000Y-74200000D03*
%TD*%
D15*
%TO.P,LED2,1,RA*%
%TO.N,d*%
X140400000Y-63200000D03*
D16*
%TO.P,LED2,2,GA*%
%TO.N,s*%
X140400000Y-65359000D03*
%TO.P,LED2,3,BA*%
%TO.N,a*%
X140400000Y-67518000D03*
%TO.P,LED2,4,K*%
%TO.N,GND*%
X140400000Y-69677000D03*
%TD*%
D15*
%TO.P,LED1,1,RA*%
%TO.N,d*%
X156400000Y-63160000D03*
D16*
%TO.P,LED1,2,GA*%
%TO.N,s*%
X156400000Y-65319000D03*
%TO.P,LED1,3,BA*%
%TO.N,a*%
X156400000Y-67478000D03*
%TO.P,LED1,4,K*%
%TO.N,GND*%
X156400000Y-69637000D03*
%TD*%
D14*
%TO.P,R3,1*%
%TO.N,Net-(J1-Pad5)*%
X149431250Y-57150000D03*
%TO.P,R3,2*%
%TO.N,d*%
X147431250Y-57150000D03*
%TD*%
D17*
%TO.N,a*%
X154600000Y-72000000D03*
%TO.N,s*%
X141806326Y-66793500D03*
%TO.N,d*%
X143200000Y-59000000D03*
%TD*%
D18*
%TO.N,Net-(J1-Pad4)*%
X150500000Y-70500000D02*
X150500000Y-73300000D01*
X150500000Y-73300000D02*
X149800000Y-74000000D01*
%TO.N,Net-(J1-Pad2)*%
X148600000Y-68400000D02*
X150600000Y-68400000D01*
X150600000Y-68400000D02*
X152241250Y-66758750D01*
X146500000Y-70500000D02*
X148600000Y-68400000D01*
X152241250Y-66758750D02*
X152241250Y-63341250D01*
%TO.N,Net-(SW1-Pad1)*%
X144500000Y-70500000D02*
X145891250Y-69108750D01*
X145891250Y-69108750D02*
X145891250Y-60801250D01*
%TO.N,Net-(J1-Pad3)*%
X148500000Y-70500000D02*
X148500000Y-72700000D01*
X148500000Y-72700000D02*
X147200000Y-74000000D01*
%TO.N,Net-(J1-Pad5)*%
X152500000Y-70500000D02*
X155175000Y-67825000D01*
X155175000Y-62893750D02*
X149431250Y-57150000D01*
X155175000Y-67825000D02*
X155175000Y-62893750D01*
%TO.N,a*%
X154600000Y-72000000D02*
X154600000Y-69278000D01*
X151800000Y-74000000D02*
X152600000Y-74000000D01*
X154600000Y-69278000D02*
X156400000Y-67478000D01*
X152600000Y-74000000D02*
X154600000Y-72000000D01*
%TO.N,s*%
X145000000Y-74200000D02*
X141800000Y-71000000D01*
X141800000Y-66799826D02*
X141806326Y-66793500D01*
X141800000Y-67000000D02*
X141800000Y-66799826D01*
X141800000Y-65600000D02*
X141559000Y-65359000D01*
X141559000Y-65359000D02*
X140400000Y-65359000D01*
X141800000Y-67000000D02*
X141800000Y-65600000D01*
X141800000Y-71000000D02*
X141800000Y-67000000D01*
%TO.N,d*%
X143200000Y-59000000D02*
X140400000Y-61800000D01*
X145050000Y-57150000D02*
X143200000Y-59000000D01*
X147431250Y-57150000D02*
X145050000Y-57150000D01*
X140400000Y-61800000D02*
X140400000Y-63200000D01*
%TD*%
M02*
