%TF.GenerationSoftware,KiCad,Pcbnew,(6.0.9)*%
%TF.CreationDate,2023-06-19T17:18:24-04:00*%
%TF.ProjectId,ckc-mx,636b632d-6d78-42e6-9b69-6361645f7063,rev?*%
%TF.SameCoordinates,Original*%
%TF.FileFunction,Drillmap*%
%TF.FilePolarity,Positive*%
%FSLAX45Y45*%
G04 Gerber Fmt 4.5, Leading zero omitted, Abs format (unit mm)*
G04 Created by KiCad (PCBNEW (6.0.9)) date 2023-06-19 17:18:24*
%MOMM*%
%LPD*%
G01*
G04 APERTURE LIST*
%ADD10C,0.200000*%
%ADD11C,0.170180*%
%ADD12C,0.398780*%
G04 APERTURE END LIST*
D10*
X14405896Y-5688775D02*
G75*
G03*
X14405896Y-7487475I437229J-899350D01*
G01*
X15193125Y-5549376D02*
X15193125Y-5488125D01*
X14493125Y-5488125D02*
X14493125Y-5549376D01*
X15193132Y-5549376D02*
G75*
G03*
X15280354Y-5688775I154998J-4D01*
G01*
X15193125Y-7688125D02*
X15193125Y-7626874D01*
X14493125Y-7626874D02*
X14493125Y-7688125D01*
X14493125Y-7688125D02*
X15193125Y-7688125D01*
X14405896Y-5688776D02*
G75*
G03*
X14493125Y-5549376I-67766J139396D01*
G01*
X15280355Y-7487477D02*
G75*
G03*
X15193125Y-7626874I67775J-139403D01*
G01*
X14493124Y-7626874D02*
G75*
G03*
X14405896Y-7487475I-154994J4D01*
G01*
X15193125Y-5488125D02*
X14493125Y-5488125D01*
X15280354Y-7487475D02*
G75*
G03*
X15280354Y-5688775I-437229J899350D01*
G01*
D11*
X14250035Y-6503035D02*
X14420215Y-6673215D01*
X14420215Y-6503035D02*
X14250035Y-6673215D01*
X15266035Y-6503035D02*
X15436215Y-6673215D01*
X15436215Y-6503035D02*
X15266035Y-6673215D01*
D12*
X15042515Y-6588125D02*
G75*
G03*
X15042515Y-6588125I-199390J0D01*
G01*
D10*
X14090744Y-8008601D02*
X14090744Y-7808601D01*
X14138363Y-7808601D01*
X14166934Y-7818125D01*
X14185982Y-7837173D01*
X14195506Y-7856220D01*
X14205030Y-7894315D01*
X14205030Y-7922887D01*
X14195506Y-7960982D01*
X14185982Y-7980030D01*
X14166934Y-7999077D01*
X14138363Y-8008601D01*
X14090744Y-8008601D01*
X14290744Y-8008601D02*
X14290744Y-7875268D01*
X14290744Y-7913363D02*
X14300268Y-7894315D01*
X14309792Y-7884792D01*
X14328839Y-7875268D01*
X14347887Y-7875268D01*
X14414553Y-8008601D02*
X14414553Y-7875268D01*
X14414553Y-7808601D02*
X14405030Y-7818125D01*
X14414553Y-7827649D01*
X14424077Y-7818125D01*
X14414553Y-7808601D01*
X14414553Y-7827649D01*
X14538363Y-8008601D02*
X14519315Y-7999077D01*
X14509792Y-7980030D01*
X14509792Y-7808601D01*
X14643125Y-8008601D02*
X14624077Y-7999077D01*
X14614553Y-7980030D01*
X14614553Y-7808601D01*
X14871696Y-8008601D02*
X14871696Y-7808601D01*
X14938363Y-7951458D01*
X15005030Y-7808601D01*
X15005030Y-8008601D01*
X15185982Y-8008601D02*
X15185982Y-7903839D01*
X15176458Y-7884792D01*
X15157411Y-7875268D01*
X15119315Y-7875268D01*
X15100268Y-7884792D01*
X15185982Y-7999077D02*
X15166934Y-8008601D01*
X15119315Y-8008601D01*
X15100268Y-7999077D01*
X15090744Y-7980030D01*
X15090744Y-7960982D01*
X15100268Y-7941934D01*
X15119315Y-7932411D01*
X15166934Y-7932411D01*
X15185982Y-7922887D01*
X15281220Y-7875268D02*
X15281220Y-8075268D01*
X15281220Y-7884792D02*
X15300268Y-7875268D01*
X15338363Y-7875268D01*
X15357411Y-7884792D01*
X15366934Y-7894315D01*
X15376458Y-7913363D01*
X15376458Y-7970506D01*
X15366934Y-7989553D01*
X15357411Y-7999077D01*
X15338363Y-8008601D01*
X15300268Y-8008601D01*
X15281220Y-7999077D01*
X15462173Y-7989553D02*
X15471696Y-7999077D01*
X15462173Y-8008601D01*
X15452649Y-7999077D01*
X15462173Y-7989553D01*
X15462173Y-8008601D01*
X15462173Y-7884792D02*
X15471696Y-7894315D01*
X15462173Y-7903839D01*
X15452649Y-7894315D01*
X15462173Y-7884792D01*
X15462173Y-7903839D01*
D11*
X13662945Y-8253035D02*
X13833125Y-8423215D01*
X13833125Y-8253035D02*
X13662945Y-8423215D01*
D10*
X14195506Y-8428601D02*
X14081220Y-8428601D01*
X14138363Y-8428601D02*
X14138363Y-8228601D01*
X14119315Y-8257173D01*
X14100268Y-8276220D01*
X14081220Y-8285744D01*
X14281220Y-8409554D02*
X14290744Y-8419077D01*
X14281220Y-8428601D01*
X14271696Y-8419077D01*
X14281220Y-8409554D01*
X14281220Y-8428601D01*
X14357411Y-8228601D02*
X14490744Y-8228601D01*
X14405030Y-8428601D01*
X14605030Y-8228601D02*
X14624077Y-8228601D01*
X14643125Y-8238125D01*
X14652649Y-8247649D01*
X14662173Y-8266696D01*
X14671696Y-8304792D01*
X14671696Y-8352411D01*
X14662173Y-8390506D01*
X14652649Y-8409554D01*
X14643125Y-8419077D01*
X14624077Y-8428601D01*
X14605030Y-8428601D01*
X14585982Y-8419077D01*
X14576458Y-8409554D01*
X14566934Y-8390506D01*
X14557411Y-8352411D01*
X14557411Y-8304792D01*
X14566934Y-8266696D01*
X14576458Y-8247649D01*
X14585982Y-8238125D01*
X14605030Y-8228601D01*
X14747887Y-8247649D02*
X14757411Y-8238125D01*
X14776458Y-8228601D01*
X14824077Y-8228601D01*
X14843125Y-8238125D01*
X14852649Y-8247649D01*
X14862173Y-8266696D01*
X14862173Y-8285744D01*
X14852649Y-8314315D01*
X14738363Y-8428601D01*
X14862173Y-8428601D01*
X14947887Y-8428601D02*
X14947887Y-8295268D01*
X14947887Y-8314315D02*
X14957411Y-8304792D01*
X14976458Y-8295268D01*
X15005030Y-8295268D01*
X15024077Y-8304792D01*
X15033601Y-8323839D01*
X15033601Y-8428601D01*
X15033601Y-8323839D02*
X15043125Y-8304792D01*
X15062173Y-8295268D01*
X15090744Y-8295268D01*
X15109792Y-8304792D01*
X15119315Y-8323839D01*
X15119315Y-8428601D01*
X15214553Y-8428601D02*
X15214553Y-8295268D01*
X15214553Y-8314315D02*
X15224077Y-8304792D01*
X15243125Y-8295268D01*
X15271696Y-8295268D01*
X15290744Y-8304792D01*
X15300268Y-8323839D01*
X15300268Y-8428601D01*
X15300268Y-8323839D02*
X15309792Y-8304792D01*
X15328839Y-8295268D01*
X15357411Y-8295268D01*
X15376458Y-8304792D01*
X15385982Y-8323839D01*
X15385982Y-8428601D01*
X15776458Y-8219077D02*
X15605030Y-8476220D01*
X16033601Y-8228601D02*
X16052649Y-8228601D01*
X16071696Y-8238125D01*
X16081220Y-8247649D01*
X16090744Y-8266696D01*
X16100268Y-8304792D01*
X16100268Y-8352411D01*
X16090744Y-8390506D01*
X16081220Y-8409554D01*
X16071696Y-8419077D01*
X16052649Y-8428601D01*
X16033601Y-8428601D01*
X16014553Y-8419077D01*
X16005030Y-8409554D01*
X15995506Y-8390506D01*
X15985982Y-8352411D01*
X15985982Y-8304792D01*
X15995506Y-8266696D01*
X16005030Y-8247649D01*
X16014553Y-8238125D01*
X16033601Y-8228601D01*
X16185982Y-8409554D02*
X16195506Y-8419077D01*
X16185982Y-8428601D01*
X16176458Y-8419077D01*
X16185982Y-8409554D01*
X16185982Y-8428601D01*
X16319315Y-8228601D02*
X16338363Y-8228601D01*
X16357411Y-8238125D01*
X16366934Y-8247649D01*
X16376458Y-8266696D01*
X16385982Y-8304792D01*
X16385982Y-8352411D01*
X16376458Y-8390506D01*
X16366934Y-8409554D01*
X16357411Y-8419077D01*
X16338363Y-8428601D01*
X16319315Y-8428601D01*
X16300268Y-8419077D01*
X16290744Y-8409554D01*
X16281220Y-8390506D01*
X16271696Y-8352411D01*
X16271696Y-8304792D01*
X16281220Y-8266696D01*
X16290744Y-8247649D01*
X16300268Y-8238125D01*
X16319315Y-8228601D01*
X16557411Y-8228601D02*
X16519315Y-8228601D01*
X16500268Y-8238125D01*
X16490744Y-8247649D01*
X16471696Y-8276220D01*
X16462173Y-8314315D01*
X16462173Y-8390506D01*
X16471696Y-8409554D01*
X16481220Y-8419077D01*
X16500268Y-8428601D01*
X16538363Y-8428601D01*
X16557411Y-8419077D01*
X16566934Y-8409554D01*
X16576458Y-8390506D01*
X16576458Y-8342887D01*
X16566934Y-8323839D01*
X16557411Y-8314315D01*
X16538363Y-8304792D01*
X16500268Y-8304792D01*
X16481220Y-8314315D01*
X16471696Y-8323839D01*
X16462173Y-8342887D01*
X16643125Y-8228601D02*
X16776458Y-8228601D01*
X16690744Y-8428601D01*
X16890744Y-8228601D02*
X16909792Y-8228601D01*
X16928839Y-8238125D01*
X16938363Y-8247649D01*
X16947887Y-8266696D01*
X16957411Y-8304792D01*
X16957411Y-8352411D01*
X16947887Y-8390506D01*
X16938363Y-8409554D01*
X16928839Y-8419077D01*
X16909792Y-8428601D01*
X16890744Y-8428601D01*
X16871696Y-8419077D01*
X16862173Y-8409554D01*
X16852649Y-8390506D01*
X16843125Y-8352411D01*
X16843125Y-8304792D01*
X16852649Y-8266696D01*
X16862173Y-8247649D01*
X16871696Y-8238125D01*
X16890744Y-8228601D01*
X17033601Y-8228601D02*
X17033601Y-8266696D01*
X17109792Y-8228601D02*
X17109792Y-8266696D01*
X17405030Y-8504792D02*
X17395506Y-8495268D01*
X17376458Y-8466696D01*
X17366935Y-8447649D01*
X17357411Y-8419077D01*
X17347887Y-8371458D01*
X17347887Y-8333363D01*
X17357411Y-8285744D01*
X17366935Y-8257173D01*
X17376458Y-8238125D01*
X17395506Y-8209553D01*
X17405030Y-8200030D01*
X17471696Y-8247649D02*
X17481220Y-8238125D01*
X17500268Y-8228601D01*
X17547887Y-8228601D01*
X17566935Y-8238125D01*
X17576458Y-8247649D01*
X17585982Y-8266696D01*
X17585982Y-8285744D01*
X17576458Y-8314315D01*
X17462173Y-8428601D01*
X17585982Y-8428601D01*
X17824077Y-8428601D02*
X17824077Y-8228601D01*
X17909792Y-8428601D02*
X17909792Y-8323839D01*
X17900268Y-8304792D01*
X17881220Y-8295268D01*
X17852649Y-8295268D01*
X17833601Y-8304792D01*
X17824077Y-8314315D01*
X18033601Y-8428601D02*
X18014554Y-8419077D01*
X18005030Y-8409554D01*
X17995506Y-8390506D01*
X17995506Y-8333363D01*
X18005030Y-8314315D01*
X18014554Y-8304792D01*
X18033601Y-8295268D01*
X18062173Y-8295268D01*
X18081220Y-8304792D01*
X18090744Y-8314315D01*
X18100268Y-8333363D01*
X18100268Y-8390506D01*
X18090744Y-8409554D01*
X18081220Y-8419077D01*
X18062173Y-8428601D01*
X18033601Y-8428601D01*
X18214554Y-8428601D02*
X18195506Y-8419077D01*
X18185982Y-8400030D01*
X18185982Y-8228601D01*
X18366935Y-8419077D02*
X18347887Y-8428601D01*
X18309792Y-8428601D01*
X18290744Y-8419077D01*
X18281220Y-8400030D01*
X18281220Y-8323839D01*
X18290744Y-8304792D01*
X18309792Y-8295268D01*
X18347887Y-8295268D01*
X18366935Y-8304792D01*
X18376458Y-8323839D01*
X18376458Y-8342887D01*
X18281220Y-8361934D01*
X18452649Y-8419077D02*
X18471696Y-8428601D01*
X18509792Y-8428601D01*
X18528839Y-8419077D01*
X18538363Y-8400030D01*
X18538363Y-8390506D01*
X18528839Y-8371458D01*
X18509792Y-8361934D01*
X18481220Y-8361934D01*
X18462173Y-8352411D01*
X18452649Y-8333363D01*
X18452649Y-8323839D01*
X18462173Y-8304792D01*
X18481220Y-8295268D01*
X18509792Y-8295268D01*
X18528839Y-8304792D01*
X18605030Y-8504792D02*
X18614554Y-8495268D01*
X18633601Y-8466696D01*
X18643125Y-8447649D01*
X18652649Y-8419077D01*
X18662173Y-8371458D01*
X18662173Y-8333363D01*
X18652649Y-8285744D01*
X18643125Y-8257173D01*
X18633601Y-8238125D01*
X18614554Y-8209553D01*
X18605030Y-8200030D01*
X18966935Y-8504792D02*
X18957411Y-8495268D01*
X18938363Y-8466696D01*
X18928839Y-8447649D01*
X18919315Y-8419077D01*
X18909792Y-8371458D01*
X18909792Y-8333363D01*
X18919315Y-8285744D01*
X18928839Y-8257173D01*
X18938363Y-8238125D01*
X18957411Y-8209553D01*
X18966935Y-8200030D01*
X19043125Y-8295268D02*
X19043125Y-8428601D01*
X19043125Y-8314315D02*
X19052649Y-8304792D01*
X19071696Y-8295268D01*
X19100268Y-8295268D01*
X19119315Y-8304792D01*
X19128839Y-8323839D01*
X19128839Y-8428601D01*
X19252649Y-8428601D02*
X19233601Y-8419077D01*
X19224077Y-8409554D01*
X19214554Y-8390506D01*
X19214554Y-8333363D01*
X19224077Y-8314315D01*
X19233601Y-8304792D01*
X19252649Y-8295268D01*
X19281220Y-8295268D01*
X19300268Y-8304792D01*
X19309792Y-8314315D01*
X19319315Y-8333363D01*
X19319315Y-8390506D01*
X19309792Y-8409554D01*
X19300268Y-8419077D01*
X19281220Y-8428601D01*
X19252649Y-8428601D01*
X19376458Y-8295268D02*
X19452649Y-8295268D01*
X19405030Y-8228601D02*
X19405030Y-8400030D01*
X19414554Y-8419077D01*
X19433601Y-8428601D01*
X19452649Y-8428601D01*
X19671696Y-8295268D02*
X19671696Y-8495268D01*
X19671696Y-8304792D02*
X19690744Y-8295268D01*
X19728839Y-8295268D01*
X19747887Y-8304792D01*
X19757411Y-8314315D01*
X19766935Y-8333363D01*
X19766935Y-8390506D01*
X19757411Y-8409554D01*
X19747887Y-8419077D01*
X19728839Y-8428601D01*
X19690744Y-8428601D01*
X19671696Y-8419077D01*
X19881220Y-8428601D02*
X19862173Y-8419077D01*
X19852649Y-8400030D01*
X19852649Y-8228601D01*
X20043125Y-8428601D02*
X20043125Y-8323839D01*
X20033601Y-8304792D01*
X20014554Y-8295268D01*
X19976458Y-8295268D01*
X19957411Y-8304792D01*
X20043125Y-8419077D02*
X20024077Y-8428601D01*
X19976458Y-8428601D01*
X19957411Y-8419077D01*
X19947887Y-8400030D01*
X19947887Y-8380982D01*
X19957411Y-8361934D01*
X19976458Y-8352411D01*
X20024077Y-8352411D01*
X20043125Y-8342887D01*
X20109792Y-8295268D02*
X20185982Y-8295268D01*
X20138363Y-8228601D02*
X20138363Y-8400030D01*
X20147887Y-8419077D01*
X20166935Y-8428601D01*
X20185982Y-8428601D01*
X20328839Y-8419077D02*
X20309792Y-8428601D01*
X20271696Y-8428601D01*
X20252649Y-8419077D01*
X20243125Y-8400030D01*
X20243125Y-8323839D01*
X20252649Y-8304792D01*
X20271696Y-8295268D01*
X20309792Y-8295268D01*
X20328839Y-8304792D01*
X20338363Y-8323839D01*
X20338363Y-8342887D01*
X20243125Y-8361934D01*
X20509792Y-8428601D02*
X20509792Y-8228601D01*
X20509792Y-8419077D02*
X20490744Y-8428601D01*
X20452649Y-8428601D01*
X20433601Y-8419077D01*
X20424077Y-8409554D01*
X20414554Y-8390506D01*
X20414554Y-8333363D01*
X20424077Y-8314315D01*
X20433601Y-8304792D01*
X20452649Y-8295268D01*
X20490744Y-8295268D01*
X20509792Y-8304792D01*
X20585982Y-8504792D02*
X20595506Y-8495268D01*
X20614554Y-8466696D01*
X20624077Y-8447649D01*
X20633601Y-8419077D01*
X20643125Y-8371458D01*
X20643125Y-8333363D01*
X20633601Y-8285744D01*
X20624077Y-8257173D01*
X20614554Y-8238125D01*
X20595506Y-8209553D01*
X20585982Y-8200030D01*
X13833125Y-8628305D02*
G75*
G03*
X13833125Y-8628305I-100000J0D01*
G01*
X14071696Y-8518781D02*
X14195506Y-8518781D01*
X14128839Y-8594972D01*
X14157411Y-8594972D01*
X14176458Y-8604495D01*
X14185982Y-8614019D01*
X14195506Y-8633067D01*
X14195506Y-8680686D01*
X14185982Y-8699734D01*
X14176458Y-8709257D01*
X14157411Y-8718781D01*
X14100268Y-8718781D01*
X14081220Y-8709257D01*
X14071696Y-8699734D01*
X14281220Y-8699734D02*
X14290744Y-8709257D01*
X14281220Y-8718781D01*
X14271696Y-8709257D01*
X14281220Y-8699734D01*
X14281220Y-8718781D01*
X14385982Y-8718781D02*
X14424077Y-8718781D01*
X14443125Y-8709257D01*
X14452649Y-8699734D01*
X14471696Y-8671162D01*
X14481220Y-8633067D01*
X14481220Y-8556876D01*
X14471696Y-8537829D01*
X14462173Y-8528305D01*
X14443125Y-8518781D01*
X14405030Y-8518781D01*
X14385982Y-8528305D01*
X14376458Y-8537829D01*
X14366934Y-8556876D01*
X14366934Y-8604495D01*
X14376458Y-8623543D01*
X14385982Y-8633067D01*
X14405030Y-8642591D01*
X14443125Y-8642591D01*
X14462173Y-8633067D01*
X14471696Y-8623543D01*
X14481220Y-8604495D01*
X14595506Y-8604495D02*
X14576458Y-8594972D01*
X14566934Y-8585448D01*
X14557411Y-8566400D01*
X14557411Y-8556876D01*
X14566934Y-8537829D01*
X14576458Y-8528305D01*
X14595506Y-8518781D01*
X14633601Y-8518781D01*
X14652649Y-8528305D01*
X14662173Y-8537829D01*
X14671696Y-8556876D01*
X14671696Y-8566400D01*
X14662173Y-8585448D01*
X14652649Y-8594972D01*
X14633601Y-8604495D01*
X14595506Y-8604495D01*
X14576458Y-8614019D01*
X14566934Y-8623543D01*
X14557411Y-8642591D01*
X14557411Y-8680686D01*
X14566934Y-8699734D01*
X14576458Y-8709257D01*
X14595506Y-8718781D01*
X14633601Y-8718781D01*
X14652649Y-8709257D01*
X14662173Y-8699734D01*
X14671696Y-8680686D01*
X14671696Y-8642591D01*
X14662173Y-8623543D01*
X14652649Y-8614019D01*
X14633601Y-8604495D01*
X14785982Y-8604495D02*
X14766934Y-8594972D01*
X14757411Y-8585448D01*
X14747887Y-8566400D01*
X14747887Y-8556876D01*
X14757411Y-8537829D01*
X14766934Y-8528305D01*
X14785982Y-8518781D01*
X14824077Y-8518781D01*
X14843125Y-8528305D01*
X14852649Y-8537829D01*
X14862173Y-8556876D01*
X14862173Y-8566400D01*
X14852649Y-8585448D01*
X14843125Y-8594972D01*
X14824077Y-8604495D01*
X14785982Y-8604495D01*
X14766934Y-8614019D01*
X14757411Y-8623543D01*
X14747887Y-8642591D01*
X14747887Y-8680686D01*
X14757411Y-8699734D01*
X14766934Y-8709257D01*
X14785982Y-8718781D01*
X14824077Y-8718781D01*
X14843125Y-8709257D01*
X14852649Y-8699734D01*
X14862173Y-8680686D01*
X14862173Y-8642591D01*
X14852649Y-8623543D01*
X14843125Y-8614019D01*
X14824077Y-8604495D01*
X14947887Y-8718781D02*
X14947887Y-8585448D01*
X14947887Y-8604495D02*
X14957411Y-8594972D01*
X14976458Y-8585448D01*
X15005030Y-8585448D01*
X15024077Y-8594972D01*
X15033601Y-8614019D01*
X15033601Y-8718781D01*
X15033601Y-8614019D02*
X15043125Y-8594972D01*
X15062173Y-8585448D01*
X15090744Y-8585448D01*
X15109792Y-8594972D01*
X15119315Y-8614019D01*
X15119315Y-8718781D01*
X15214553Y-8718781D02*
X15214553Y-8585448D01*
X15214553Y-8604495D02*
X15224077Y-8594972D01*
X15243125Y-8585448D01*
X15271696Y-8585448D01*
X15290744Y-8594972D01*
X15300268Y-8614019D01*
X15300268Y-8718781D01*
X15300268Y-8614019D02*
X15309792Y-8594972D01*
X15328839Y-8585448D01*
X15357411Y-8585448D01*
X15376458Y-8594972D01*
X15385982Y-8614019D01*
X15385982Y-8718781D01*
X15776458Y-8509257D02*
X15605030Y-8766400D01*
X16033601Y-8518781D02*
X16052649Y-8518781D01*
X16071696Y-8528305D01*
X16081220Y-8537829D01*
X16090744Y-8556876D01*
X16100268Y-8594972D01*
X16100268Y-8642591D01*
X16090744Y-8680686D01*
X16081220Y-8699734D01*
X16071696Y-8709257D01*
X16052649Y-8718781D01*
X16033601Y-8718781D01*
X16014553Y-8709257D01*
X16005030Y-8699734D01*
X15995506Y-8680686D01*
X15985982Y-8642591D01*
X15985982Y-8594972D01*
X15995506Y-8556876D01*
X16005030Y-8537829D01*
X16014553Y-8528305D01*
X16033601Y-8518781D01*
X16185982Y-8699734D02*
X16195506Y-8709257D01*
X16185982Y-8718781D01*
X16176458Y-8709257D01*
X16185982Y-8699734D01*
X16185982Y-8718781D01*
X16385982Y-8718781D02*
X16271696Y-8718781D01*
X16328839Y-8718781D02*
X16328839Y-8518781D01*
X16309792Y-8547353D01*
X16290744Y-8566400D01*
X16271696Y-8575924D01*
X16566934Y-8518781D02*
X16471696Y-8518781D01*
X16462173Y-8614019D01*
X16471696Y-8604495D01*
X16490744Y-8594972D01*
X16538363Y-8594972D01*
X16557411Y-8604495D01*
X16566934Y-8614019D01*
X16576458Y-8633067D01*
X16576458Y-8680686D01*
X16566934Y-8699734D01*
X16557411Y-8709257D01*
X16538363Y-8718781D01*
X16490744Y-8718781D01*
X16471696Y-8709257D01*
X16462173Y-8699734D01*
X16643125Y-8518781D02*
X16776458Y-8518781D01*
X16690744Y-8718781D01*
X16890744Y-8518781D02*
X16909792Y-8518781D01*
X16928839Y-8528305D01*
X16938363Y-8537829D01*
X16947887Y-8556876D01*
X16957411Y-8594972D01*
X16957411Y-8642591D01*
X16947887Y-8680686D01*
X16938363Y-8699734D01*
X16928839Y-8709257D01*
X16909792Y-8718781D01*
X16890744Y-8718781D01*
X16871696Y-8709257D01*
X16862173Y-8699734D01*
X16852649Y-8680686D01*
X16843125Y-8642591D01*
X16843125Y-8594972D01*
X16852649Y-8556876D01*
X16862173Y-8537829D01*
X16871696Y-8528305D01*
X16890744Y-8518781D01*
X17033601Y-8518781D02*
X17033601Y-8556876D01*
X17109792Y-8518781D02*
X17109792Y-8556876D01*
X17405030Y-8794972D02*
X17395506Y-8785448D01*
X17376458Y-8756876D01*
X17366935Y-8737829D01*
X17357411Y-8709257D01*
X17347887Y-8661638D01*
X17347887Y-8623543D01*
X17357411Y-8575924D01*
X17366935Y-8547353D01*
X17376458Y-8528305D01*
X17395506Y-8499734D01*
X17405030Y-8490210D01*
X17585982Y-8718781D02*
X17471696Y-8718781D01*
X17528839Y-8718781D02*
X17528839Y-8518781D01*
X17509792Y-8547353D01*
X17490744Y-8566400D01*
X17471696Y-8575924D01*
X17824077Y-8718781D02*
X17824077Y-8518781D01*
X17909792Y-8718781D02*
X17909792Y-8614019D01*
X17900268Y-8594972D01*
X17881220Y-8585448D01*
X17852649Y-8585448D01*
X17833601Y-8594972D01*
X17824077Y-8604495D01*
X18033601Y-8718781D02*
X18014554Y-8709257D01*
X18005030Y-8699734D01*
X17995506Y-8680686D01*
X17995506Y-8623543D01*
X18005030Y-8604495D01*
X18014554Y-8594972D01*
X18033601Y-8585448D01*
X18062173Y-8585448D01*
X18081220Y-8594972D01*
X18090744Y-8604495D01*
X18100268Y-8623543D01*
X18100268Y-8680686D01*
X18090744Y-8699734D01*
X18081220Y-8709257D01*
X18062173Y-8718781D01*
X18033601Y-8718781D01*
X18214554Y-8718781D02*
X18195506Y-8709257D01*
X18185982Y-8690210D01*
X18185982Y-8518781D01*
X18366935Y-8709257D02*
X18347887Y-8718781D01*
X18309792Y-8718781D01*
X18290744Y-8709257D01*
X18281220Y-8690210D01*
X18281220Y-8614019D01*
X18290744Y-8594972D01*
X18309792Y-8585448D01*
X18347887Y-8585448D01*
X18366935Y-8594972D01*
X18376458Y-8614019D01*
X18376458Y-8633067D01*
X18281220Y-8652115D01*
X18443125Y-8794972D02*
X18452649Y-8785448D01*
X18471696Y-8756876D01*
X18481220Y-8737829D01*
X18490744Y-8709257D01*
X18500268Y-8661638D01*
X18500268Y-8623543D01*
X18490744Y-8575924D01*
X18481220Y-8547353D01*
X18471696Y-8528305D01*
X18452649Y-8499734D01*
X18443125Y-8490210D01*
X18805030Y-8794972D02*
X18795506Y-8785448D01*
X18776458Y-8756876D01*
X18766935Y-8737829D01*
X18757411Y-8709257D01*
X18747887Y-8661638D01*
X18747887Y-8623543D01*
X18757411Y-8575924D01*
X18766935Y-8547353D01*
X18776458Y-8528305D01*
X18795506Y-8499734D01*
X18805030Y-8490210D01*
X18881220Y-8585448D02*
X18881220Y-8718781D01*
X18881220Y-8604495D02*
X18890744Y-8594972D01*
X18909792Y-8585448D01*
X18938363Y-8585448D01*
X18957411Y-8594972D01*
X18966935Y-8614019D01*
X18966935Y-8718781D01*
X19090744Y-8718781D02*
X19071696Y-8709257D01*
X19062173Y-8699734D01*
X19052649Y-8680686D01*
X19052649Y-8623543D01*
X19062173Y-8604495D01*
X19071696Y-8594972D01*
X19090744Y-8585448D01*
X19119315Y-8585448D01*
X19138363Y-8594972D01*
X19147887Y-8604495D01*
X19157411Y-8623543D01*
X19157411Y-8680686D01*
X19147887Y-8699734D01*
X19138363Y-8709257D01*
X19119315Y-8718781D01*
X19090744Y-8718781D01*
X19214554Y-8585448D02*
X19290744Y-8585448D01*
X19243125Y-8518781D02*
X19243125Y-8690210D01*
X19252649Y-8709257D01*
X19271696Y-8718781D01*
X19290744Y-8718781D01*
X19509792Y-8585448D02*
X19509792Y-8785448D01*
X19509792Y-8594972D02*
X19528839Y-8585448D01*
X19566935Y-8585448D01*
X19585982Y-8594972D01*
X19595506Y-8604495D01*
X19605030Y-8623543D01*
X19605030Y-8680686D01*
X19595506Y-8699734D01*
X19585982Y-8709257D01*
X19566935Y-8718781D01*
X19528839Y-8718781D01*
X19509792Y-8709257D01*
X19719315Y-8718781D02*
X19700268Y-8709257D01*
X19690744Y-8690210D01*
X19690744Y-8518781D01*
X19881220Y-8718781D02*
X19881220Y-8614019D01*
X19871696Y-8594972D01*
X19852649Y-8585448D01*
X19814554Y-8585448D01*
X19795506Y-8594972D01*
X19881220Y-8709257D02*
X19862173Y-8718781D01*
X19814554Y-8718781D01*
X19795506Y-8709257D01*
X19785982Y-8690210D01*
X19785982Y-8671162D01*
X19795506Y-8652115D01*
X19814554Y-8642591D01*
X19862173Y-8642591D01*
X19881220Y-8633067D01*
X19947887Y-8585448D02*
X20024077Y-8585448D01*
X19976458Y-8518781D02*
X19976458Y-8690210D01*
X19985982Y-8709257D01*
X20005030Y-8718781D01*
X20024077Y-8718781D01*
X20166935Y-8709257D02*
X20147887Y-8718781D01*
X20109792Y-8718781D01*
X20090744Y-8709257D01*
X20081220Y-8690210D01*
X20081220Y-8614019D01*
X20090744Y-8594972D01*
X20109792Y-8585448D01*
X20147887Y-8585448D01*
X20166935Y-8594972D01*
X20176458Y-8614019D01*
X20176458Y-8633067D01*
X20081220Y-8652115D01*
X20347887Y-8718781D02*
X20347887Y-8518781D01*
X20347887Y-8709257D02*
X20328839Y-8718781D01*
X20290744Y-8718781D01*
X20271696Y-8709257D01*
X20262173Y-8699734D01*
X20252649Y-8680686D01*
X20252649Y-8623543D01*
X20262173Y-8604495D01*
X20271696Y-8594972D01*
X20290744Y-8585448D01*
X20328839Y-8585448D01*
X20347887Y-8594972D01*
X20424077Y-8794972D02*
X20433601Y-8785448D01*
X20452649Y-8756876D01*
X20462173Y-8737829D01*
X20471696Y-8709257D01*
X20481220Y-8661638D01*
X20481220Y-8623543D01*
X20471696Y-8575924D01*
X20462173Y-8547353D01*
X20452649Y-8528305D01*
X20433601Y-8499734D01*
X20424077Y-8490210D01*
M02*
